<svg width="45" height="61" viewBox="0 0 45 61" fill="none" xmlns="http://www.w3.org/2000/svg">
<path fill-rule="evenodd" clip-rule="evenodd" d="M36.6412 38.6998C39.071 39.4681 40.9767 40.7544 42.3543 42.5549C43.73 44.3554 44.4188 46.5807 44.4188 49.213C44.4188 52.941 42.9717 55.8075 40.0695 57.8165C37.1791 59.8234 32.9588 60.8219 27.4064 60.8219H8.84366C6.93994 60.8219 5.40148 59.2854 5.40148 57.3817V30.7872C5.26252 30.7872 5.12753 30.7634 4.98858 30.7296C3.96823 30.4775 3.20992 29.5584 3.20992 28.4567C3.20992 27.8492 3.4382 27.2993 3.82927 26.8864C3.96823 26.7375 4.13895 26.5986 4.32356 26.4854L1.63969 24.0398C0.273935 22.8031 0.168724 20.7028 1.40942 19.337L12.7087 6.8904C16.0794 3.17228 19.3846 0.96881 22.6203 0.270051C25.4074 -0.339379 27.9087 0.143003 30.1121 1.72712L22.5389 10.0666L21.7489 10.938L21.2903 11.4442L18.4595 14.549L17.7032 15.3847L17.0362 16.1232L16.7146 16.4765L12.6551 20.9311L12.4506 21.1614L12.004 21.6437L11.3489 22.3683L10.7156 23.0671L10.259 23.5614L7.59701 26.5112L7.48386 26.6244L7.25359 26.8666L7.2536 26.8666L7.25361 26.8666C7.33301 26.946 7.41439 27.0274 7.48386 27.1286C7.5851 27.2795 7.6784 27.4403 7.73597 27.6229C7.75449 27.6414 7.76587 27.6699 7.77496 27.6927L7.77964 27.7043C7.78545 27.7241 7.79132 27.7436 7.79712 27.7628C7.82499 27.8553 7.85117 27.9421 7.86103 28.0358C7.96426 28.1629 8.07939 28.3018 8.19453 28.4169C8.96277 29.2289 9.98312 29.8045 11.063 30.0447C12.6908 30.4219 14.4119 30.011 15.6963 29.0125L16.6849 28.2442L17.201 29.3897C17.8422 30.813 19.0015 31.9842 20.399 32.673C21.8005 33.3599 23.4402 33.5544 24.9667 33.1772C26.4933 32.8338 27.9047 31.9266 28.8675 30.6522C29.3479 30.0209 29.7389 29.2983 29.9811 28.542C30.0506 28.3554 30.0963 28.1609 30.13 27.9782C30.1856 27.7718 30.2114 27.5653 30.2332 27.349C30.3027 26.9579 30.3464 26.543 30.3246 26.1658L30.3126 26.0964V26.0864C30.3306 25.8398 30.2863 25.5492 30.2416 25.2558L30.2416 25.2558V25.2557C30.2219 25.1264 30.2022 24.9965 30.1876 24.8696L30.1777 24.812C30.0526 24.1807 29.7866 23.4145 29.4193 22.7812C29.064 22.138 28.5935 21.5187 28.0437 21.0026C27.3409 20.3495 26.5171 19.8095 25.598 19.4323C25.4035 20.1668 24.7265 20.6949 23.9365 20.6949C22.9737 20.6949 22.1935 19.9147 22.1935 18.9519C22.1935 17.9991 22.9737 17.2189 23.9365 17.2189C24.8873 17.2189 25.6675 17.9991 25.6675 18.9519C25.6675 19.0095 25.6675 19.077 25.6576 19.1346C26.664 19.3629 27.6407 19.8095 28.5121 20.4428C29.1791 20.9351 29.7866 21.5425 30.2789 22.2313C30.7633 22.944 31.1404 23.6666 31.3925 24.5837C31.4273 24.7509 31.4692 24.9103 31.511 25.0692C31.5956 25.3912 31.6796 25.7109 31.7022 26.0884C31.7717 26.5787 31.7499 27.0393 31.7022 27.4978C31.7022 27.6586 31.6923 27.8194 31.6586 27.9802C31.6447 28.28 31.5891 28.5658 31.5196 28.8398L31.5102 28.8785C31.5021 28.9124 31.4945 28.9443 31.4858 28.9688L31.4789 29.0011C31.4591 29.0945 31.4372 29.198 31.3945 29.2904C31.1523 30.1281 30.7871 30.9519 30.2809 31.6765C29.1474 33.2944 27.46 34.5212 25.4987 35.0472C26.5409 36.4011 27.9623 37.2844 29.4551 37.5941C31.2556 37.9753 33.1037 37.4909 34.4576 36.3792C35.5236 35.5078 36.2819 34.2671 36.5439 32.8696C36.6253 32.5003 36.659 32.1112 36.659 31.7202C36.659 31.6408 36.659 31.5594 36.6471 31.48C36.6035 30.3088 36.2223 29.1375 35.5017 28.0835C35.2159 28.3137 34.8605 28.4388 34.4695 28.4388C34.0089 28.4388 33.6079 28.2661 33.2983 27.9802C32.9548 27.6705 32.7345 27.212 32.7345 26.6959C32.7345 25.743 33.5047 24.9648 34.4675 24.9648C35.4184 24.9648 36.2104 25.743 36.2104 26.6959C36.2104 27.0174 36.129 27.3152 35.9682 27.5673C36.127 27.6944 36.2878 27.8313 36.4268 27.9802C36.5876 28.1291 36.7265 28.3018 36.8615 28.4745C37.5067 29.2666 37.9752 30.2194 38.1836 31.2616C39.0769 31.0016 39.8928 30.5509 40.5697 29.9336C41.1653 29.3817 41.6119 28.7167 41.9236 27.9822C41.9521 27.9381 41.973 27.8889 41.9935 27.8407L41.9935 27.8407C42.0044 27.8151 42.0151 27.7899 42.0268 27.7658C42.3365 26.938 42.4496 26.0567 42.3583 25.1852C42.2114 23.4303 41.1315 21.8125 39.595 20.8954L39.1126 20.6095L39.1226 20.1152C39.1702 18.4755 38.4715 16.7882 37.1871 15.6169C36.0734 14.6065 34.5469 13.9753 32.9191 13.9415C33.733 15.4323 34.0566 17.1415 33.8263 18.7475C34.5608 18.944 35.1107 19.6209 35.1107 20.4229C35.1107 21.3758 34.3305 22.1559 33.3677 22.1559C32.4149 22.1559 31.6367 21.3758 31.6367 20.4229C31.6367 19.4601 32.405 18.6919 33.3558 18.68C33.1394 16.7743 32.3017 15.0214 31.0273 13.7589C30.1896 12.9311 29.193 12.3137 28.1251 11.9465C27.0471 11.5792 25.9117 11.4522 24.7881 11.5911C24.4188 11.6368 24.0536 11.7083 23.6923 11.8055L26.0566 9.56831C28.4327 9.73506 30.7275 10.9102 32.1429 12.7624C32.3831 13.0701 32.6134 13.3916 32.8079 13.7351C34.4734 13.3122 36.399 13.6557 37.9136 14.6879C39.5097 15.7321 40.6213 17.5683 40.8734 19.5415C42.7672 20.6532 44.1429 22.7177 44.3732 24.9688C44.6154 27.1584 43.7876 29.4889 42.1816 30.9777C41.9871 32.3911 41.5265 33.6854 40.8059 34.8686C39.8055 36.4864 38.4198 37.7589 36.6412 38.6998ZM33.6377 19.7361C33.5682 19.7241 33.4987 19.7122 33.4293 19.7023H33.3737C32.9826 19.7023 32.6491 20.01 32.6491 20.4229C32.6491 20.814 32.9826 21.1475 33.3737 21.1475C33.7727 21.1475 34.0943 20.814 34.0943 20.4229C34.0943 20.1013 33.9017 19.8373 33.6377 19.7361ZM35.1246 26.9996C35.0809 27.1127 34.9995 27.216 34.8983 27.2854C34.7831 27.3767 34.6342 27.4204 34.4734 27.4204C34.0824 27.4204 33.7489 27.0988 33.7489 26.6998C33.7489 26.3088 34.0824 25.9892 34.4734 25.9892C34.8744 25.9892 35.194 26.3107 35.194 26.6998C35.194 26.805 35.1722 26.9063 35.1246 26.9996ZM24.6596 19.0344C24.6624 19.0143 24.665 18.9955 24.665 18.9797C24.665 18.9733 24.665 18.9703 24.6653 18.9674C24.6654 18.9663 24.6656 18.9652 24.6658 18.9639C24.6661 18.9623 24.6665 18.9604 24.667 18.9579C24.667 18.5668 24.3335 18.2333 23.9424 18.2333C23.5295 18.2333 23.2179 18.5668 23.2179 18.9579C23.2179 19.3688 23.5295 19.6785 23.9424 19.6785C24.2858 19.6785 24.5836 19.4383 24.6531 19.1048C24.6531 19.0815 24.6565 19.0572 24.6596 19.0344ZM6.26302 28.7187C6.19354 28.9033 6.05458 29.0403 5.89577 29.1217C5.79255 29.1792 5.67939 29.2011 5.56227 29.2011C5.52853 29.2011 5.49279 29.2011 5.45905 29.1911C5.43721 29.1911 5.42728 29.1911 5.40148 29.1792C5.05805 29.1098 4.80594 28.812 4.80594 28.4547C4.80594 28.2621 4.87542 28.0894 5.01041 27.9624C5.07989 27.871 5.18312 27.8016 5.29627 27.7539C5.37766 27.7202 5.46897 27.6964 5.56029 27.6964C5.75483 27.6964 5.91562 27.7658 6.05458 27.9048C6.07642 27.9147 6.10222 27.9485 6.11215 27.9723C6.21537 28.0656 6.28485 28.2026 6.29676 28.3634V28.3872C6.30669 28.3971 6.30669 28.4308 6.30669 28.4547C6.30867 28.548 6.28485 28.6393 6.26302 28.7187ZM15.4382 51.8691H28.9151C30.9777 51.8691 32.6471 50.1976 32.6471 48.1351C32.6471 47.1028 32.2303 46.1718 31.5553 45.4949C30.8784 44.8199 29.9454 44.4031 28.9151 44.4031H15.4382V51.8691Z" fill="url(#paint0_linear_0_37)"/>
<defs>
<linearGradient id="paint0_linear_0_37" x1="0.543771" y1="60.8196" x2="44.4196" y2="60.8196" gradientUnits="userSpaceOnUse">
<stop stop-color="#F914F9"/>
<stop offset="0.4888" stop-color="#7E28FB"/>
<stop offset="1" stop-color="#30F2FA"/>
</linearGradient>
</defs>
</svg>


